<svg width="960" height="210" viewBox="0 0 960 210" xmlns="http://www.w3.org/2000/svg" role="img" aria-label="Game Start Screen - PLAYER: TIANHAO" shape-rendering="crispEdges">
  <rect x="0" y="0" width="960" height="210" fill="#0B0D10"/>

  <!-- outer pixel frame -->
  <rect x="14" y="14" width="932" height="182" fill="#0B0D10" stroke="#F2C14E" stroke-width="6"/>
  <rect x="22" y="22" width="916" height="166" fill="#0B0D10" stroke="#20242C" stroke-width="2"/>

  <!-- corner pixels (red UI) -->
  <rect x="14" y="14" width="18" height="18" fill="#FF3B3B"/>
  <rect x="928" y="14" width="18" height="18" fill="#FF3B3B"/>
  <rect x="14" y="178" width="18" height="18" fill="#FF3B3B"/>
  <rect x="928" y="178" width="18" height="18" fill="#FF3B3B"/>

  <!-- title bar -->
  <rect x="34" y="34" width="892" height="34" fill="#0B0D10" stroke="#F2C14E" stroke-width="3"/>
  <rect x="40" y="40" width="16" height="22" fill="#3CFF6B"/>
  <rect x="62" y="40" width="16" height="22" fill="#3DA9FF"/>
  <rect x="84" y="40" width="16" height="22" fill="#FF3B3B"/>

  <text x="120" y="58"
        fill="#F2C14E"
        font-size="18"
        font-family="'Press Start 2P', 'Courier New', monospace">ROGUE PROFILE // START</text>

  <!-- main screen text -->
  <text x="46" y="102" fill="#B8C0CC" font-size="14" font-family="'Press Start 2P', 'Courier New', monospace">MODE: CARD_ROGUE</text>
  <text x="46" y="126" fill="#B8C0CC" font-size="14" font-family="'Press Start 2P', 'Courier New', monospace">CLASS: GAME_DEV + DESIGNER</text>
  <text x="46" y="150" fill="#B8C0CC" font-size="14" font-family="'Press Start 2P', 'Courier New', monospace">PREF: DBG_MECHANICS / ROGUELIKE / SYSTEM_DESIGN / AI_WORKFLOW</text>

  <!-- bottom hint -->
  <rect x="34" y="164" width="892" height="20" fill="#0B0D10" stroke="#20242C" stroke-width="2"/>
  <text x="46" y="179" fill="#3DA9FF" font-size="12" font-family="'Press Start 2P', 'Courier New', monospace">PRESS ENTER TO CONTINUE...</text>
</svg>
