<svg width="960" height="310" viewBox="0 0 960 310" xmlns="http://www.w3.org/2000/svg" role="img" aria-label="The Skill Deck" shape-rendering="crispEdges">
  <rect x="0" y="0" width="960" height="310" fill="#0B0D10"/>

  <!-- section label -->
  <rect x="10" y="10" width="940" height="34" fill="#0B0D10" stroke="#F2C14E" stroke-width="4"/>
  <rect x="22" y="18" width="12" height="18" fill="#FF3B3B"/>
  <rect x="38" y="18" width="12" height="18" fill="#3CFF6B"/>
  <rect x="54" y="18" width="12" height="18" fill="#3DA9FF"/>
  <text x="86" y="33" fill="#F2C14E" font-size="14" font-family="'Press Start 2P', 'Courier New', monospace">THE SKILL DECK</text>

  <!-- Card geometry -->
  <!-- x positions: 16, 206, 396, 586, 776 (w=168, gap=22) -->

  <!-- CARD 1: UNITY -->
  <g transform="translate(16,64)">
    <rect x="0" y="0" width="168" height="232" fill="#0B0D10" stroke="#F2C14E" stroke-width="4"/>
    <rect x="6" y="6" width="156" height="220" fill="#0B0D10" stroke="#20242C" stroke-width="2"/>
    <rect x="0" y="0" width="14" height="14" fill="#FF3B3B"/>
    <rect x="154" y="0" width="14" height="14" fill="#FF3B3B"/>
    <rect x="0" y="218" width="14" height="14" fill="#FF3B3B"/>
    <rect x="154" y="218" width="14" height="14" fill="#FF3B3B"/>

    <rect x="10" y="14" width="148" height="28" fill="#0B0D10" stroke="#F2C14E" stroke-width="2"/>
    <text x="16" y="34" fill="#F2C14E" font-size="10" font-family="'Press Start 2P', 'Courier New', monospace">UNITY</text>

    <!-- pixel unity logo -->
    <g transform="translate(18,58)">
      <rect x="0" y="0" width="132" height="72" fill="#0B0D10" stroke="#20242C" stroke-width="2"/>
      <path d="M40 16 L60 16 L78 36 L60 56 L40 56 L22 36 Z" fill="#3DA9FF"/>
      <path d="M60 16 L88 16 L102 36 L88 56 L60 56 L78 36 Z" fill="#3CFF6B"/>
      <path d="M40 16 L60 16 L78 36 L60 56 L40 56 L22 36 Z" fill="none" stroke="#0B0D10" stroke-width="4"/>
    </g>

    <text x="14" y="154" fill="#3DA9FF" font-size="10" font-family="'Press Start 2P', 'Courier New', monospace">[SYSTEM_ENGINE]</text>
    <text x="14" y="178" fill="#B8C0CC" font-size="9" font-family="'Press Start 2P', 'Courier New', monospace">Crafting Worlds</text>
    <text x="14" y="196" fill="#B8C0CC" font-size="9" font-family="'Press Start 2P', 'Courier New', monospace">(Level Max)</text>
  </g>

  <!-- CARD 2: RUST -->
  <g transform="translate(206,64)">
    <rect x="0" y="0" width="168" height="232" fill="#0B0D10" stroke="#F2C14E" stroke-width="4"/>
    <rect x="6" y="6" width="156" height="220" fill="#0B0D10" stroke="#20242C" stroke-width="2"/>
    <rect x="0" y="0" width="14" height="14" fill="#FF3B3B"/>
    <rect x="154" y="0" width="14" height="14" fill="#FF3B3B"/>
    <rect x="0" y="218" width="14" height="14" fill="#FF3B3B"/>
    <rect x="154" y="218" width="14" height="14" fill="#FF3B3B"/>

    <rect x="10" y="14" width="148" height="28" fill="#0B0D10" stroke="#F2C14E" stroke-width="2"/>
    <text x="16" y="34" fill="#F2C14E" font-size="10" font-family="'Press Start 2P', 'Courier New', monospace">RUST</text>

    <!-- pixel rust logo (gear-ish) -->
    <g transform="translate(18,58)">
      <rect x="0" y="0" width="132" height="72" fill="#0B0D10" stroke="#20242C" stroke-width="2"/>
      <rect x="60" y="14" width="12" height="44" fill="#F2C14E"/>
      <rect x="44" y="30" width="44" height="12" fill="#F2C14E"/>
      <rect x="52" y="22" width="28" height="28" fill="#3DA9FF"/>
      <rect x="58" y="28" width="16" height="16" fill="#0B0D10"/>
      <rect x="16" y="10" width="8" height="8" fill="#F2C14E"/>
      <rect x="108" y="10" width="8" height="8" fill="#F2C14E"/>
      <rect x="16" y="54" width="8" height="8" fill="#F2C14E"/>
      <rect x="108" y="54" width="8" height="8" fill="#F2C14E"/>
    </g>

    <text x="14" y="154" fill="#3CFF6B" font-size="10" font-family="'Press Start 2P', 'Courier New', monospace">[PERFORMANCE_BOOST]</text>
    <text x="14" y="178" fill="#B8C0CC" font-size="9" font-family="'Press Start 2P', 'Courier New', monospace">Memory Safety</text>
    <text x="14" y="196" fill="#B8C0CC" font-size="9" font-family="'Press Start 2P', 'Courier New', monospace">(Level 1 -&gt; Up)</text>
  </g>

  <!-- CARD 3: DBG -->
  <g transform="translate(396,64)">
    <rect x="0" y="0" width="168" height="232" fill="#0B0D10" stroke="#F2C14E" stroke-width="4"/>
    <rect x="6" y="6" width="156" height="220" fill="#0B0D10" stroke="#20242C" stroke-width="2"/>
    <rect x="0" y="0" width="14" height="14" fill="#FF3B3B"/>
    <rect x="154" y="0" width="14" height="14" fill="#FF3B3B"/>
    <rect x="0" y="218" width="14" height="14" fill="#FF3B3B"/>
    <rect x="154" y="218" width="14" height="14" fill="#FF3B3B"/>

    <rect x="10" y="14" width="148" height="28" fill="#0B0D10" stroke="#F2C14E" stroke-width="2"/>
    <text x="16" y="34" fill="#F2C14E" font-size="10" font-family="'Press Start 2P', 'Courier New', monospace">DBG</text>

    <!-- pixel card emoji -->
    <g transform="translate(18,58)">
      <rect x="0" y="0" width="132" height="72" fill="#0B0D10" stroke="#20242C" stroke-width="2"/>
      <rect x="38" y="12" width="56" height="48" fill="#0B0D10" stroke="#3DA9FF" stroke-width="3"/>
      <rect x="44" y="18" width="44" height="10" fill="#FF3B3B"/>
      <rect x="44" y="34" width="18" height="18" fill="#3CFF6B"/>
      <rect x="68" y="34" width="20" height="6" fill="#F2C14E"/>
      <rect x="68" y="46" width="20" height="6" fill="#F2C14E"/>
    </g>

    <text x="14" y="154" fill="#3DA9FF" font-size="10" font-family="'Press Start 2P', 'Courier New', monospace">[MECHANIC_DESIGN]</text>
    <text x="14" y="178" fill="#B8C0CC" font-size="9" font-family="'Press Start 2P', 'Courier New', monospace">Designing Nodes,</text>
    <text x="14" y="196" fill="#B8C0CC" font-size="9" font-family="'Press Start 2P', 'Courier New', monospace">Loops, &amp; Pacing</text>
  </g>

  <!-- CARD 4: C# -->
  <g transform="translate(586,64)">
    <rect x="0" y="0" width="168" height="232" fill="#0B0D10" stroke="#F2C14E" stroke-width="4"/>
    <rect x="6" y="6" width="156" height="220" fill="#0B0D10" stroke="#20242C" stroke-width="2"/>
    <rect x="0" y="0" width="14" height="14" fill="#FF3B3B"/>
    <rect x="154" y="0" width="14" height="14" fill="#FF3B3B"/>
    <rect x="0" y="218" width="14" height="14" fill="#FF3B3B"/>
    <rect x="154" y="218" width="14" height="14" fill="#FF3B3B"/>

    <rect x="10" y="14" width="148" height="28" fill="#0B0D10" stroke="#F2C14E" stroke-width="2"/>
    <text x="16" y="34" fill="#F2C14E" font-size="10" font-family="'Press Start 2P', 'Courier New', monospace">C#</text>

    <!-- pixel C# glyph -->
    <g transform="translate(18,58)">
      <rect x="0" y="0" width="132" height="72" fill="#0B0D10" stroke="#20242C" stroke-width="2"/>
      <rect x="34" y="16" width="12" height="40" fill="#3CFF6B"/>
      <rect x="34" y="16" width="36" height="12" fill="#3CFF6B"/>
      <rect x="34" y="44" width="36" height="12" fill="#3CFF6B"/>
      <rect x="82" y="20" width="6" height="32" fill="#F2C14E"/>
      <rect x="74" y="28" width="22" height="6" fill="#F2C14E"/>
      <rect x="74" y="38" width="22" height="6" fill="#F2C14E"/>
    </g>

    <text x="14" y="154" fill="#3CFF6B" font-size="10" font-family="'Press Start 2P', 'Courier New', monospace">[CORE_LANGUAGE]</text>
    <text x="14" y="178" fill="#B8C0CC" font-size="9" font-family="'Press Start 2P', 'Courier New', monospace">Backend Power</text>
  </g>

  <!-- CARD 5: GODOT -->
  <g transform="translate(776,64)">
    <rect x="0" y="0" width="168" height="232" fill="#0B0D10" stroke="#F2C14E" stroke-width="4"/>
    <rect x="6" y="6" width="156" height="220" fill="#0B0D10" stroke="#20242C" stroke-width="2"/>
    <rect x="0" y="0" width="14" height="14" fill="#FF3B3B"/>
    <rect x="154" y="0" width="14" height="14" fill="#FF3B3B"/>
    <rect x="0" y="218" width="14" height="14" fill="#FF3B3B"/>
    <rect x="154" y="218" width="14" height="14" fill="#FF3B3B"/>

    <rect x="10" y="14" width="148" height="28" fill="#0B0D10" stroke="#F2C14E" stroke-width="2"/>
    <text x="16" y="34" fill="#F2C14E" font-size="10" font-family="'Press Start 2P', 'Courier New', monospace">GODOT</text>

    <!-- pixel godot-ish face -->
    <g transform="translate(18,58)">
      <rect x="0" y="0" width="132" height="72" fill="#0B0D10" stroke="#20242C" stroke-width="2"/>
      <rect x="34" y="14" width="64" height="44" fill="#3DA9FF"/>
      <rect x="40" y="20" width="52" height="32" fill="#0B0D10"/>
      <rect x="46" y="26" width="10" height="10" fill="#F2C14E"/>
      <rect x="76" y="26" width="10" height="10" fill="#F2C14E"/>
      <rect x="54" y="44" width="24" height="4" fill="#FF3B3B"/>
    </g>

    <text x="14" y="154" fill="#3DA9FF" font-size="10" font-family="'Press Start 2P', 'Courier New', monospace">[FLEXIBLE_ENGINE]</text>
    <text x="14" y="178" fill="#B8C0CC" font-size="9" font-family="'Press Start 2P', 'Courier New', monospace">New Vibe Engine</text>
    <text x="14" y="196" fill="#B8C0CC" font-size="9" font-family="'Press Start 2P', 'Courier New', monospace">(Learning)</text>
  </g>
</svg>
